<svg width="179" height="20" viewBox="0 0 179 20" fill="none" xmlns="http://www.w3.org/2000/svg">
<path d="M0 2H2.73813V17.6923H0V2Z" fill="#A64D79"/>
<path d="M7.93664 6.32967H10.3024V8L10.3462 8.04396C10.7259 7.41392 11.2224 6.92308 11.8357 6.57143C12.4491 6.20513 13.1281 6.02198 13.8729 6.02198C15.1142 6.02198 16.0926 6.34432 16.8082 6.98901C17.5237 7.6337 17.8815 8.60073 17.8815 9.89011V17.6923H15.3844V10.5495C15.3551 9.65568 15.1653 9.01099 14.8148 8.61539C14.4643 8.20513 13.9167 8 13.1719 8C12.7484 8 12.3688 8.08059 12.0329 8.24176C11.697 8.38828 11.4122 8.60073 11.1786 8.87912C10.9449 9.14286 10.7624 9.45788 10.631 9.82418C10.4995 10.1905 10.4338 10.5788 10.4338 10.989V17.6923H7.93664V6.32967Z" fill="#A64D79"/>
<path d="M21.5664 6.32967H23.4502V2.92308H25.9474V6.32967H28.2036V8.1978H25.9474V14.2637C25.9474 14.5275 25.9547 14.7546 25.9693 14.9451C25.9985 15.1355 26.0496 15.2967 26.1226 15.4286C26.2102 15.5604 26.3344 15.663 26.495 15.7363C26.6556 15.7949 26.8747 15.8242 27.1521 15.8242C27.3274 15.8242 27.5026 15.8242 27.6779 15.8242C27.8531 15.8095 28.0283 15.7802 28.2036 15.7363V17.6703C27.9261 17.6996 27.656 17.7289 27.3931 17.7582C27.1302 17.7875 26.8601 17.8022 26.5826 17.8022C25.9255 17.8022 25.3924 17.7436 24.9835 17.6264C24.5893 17.4945 24.2753 17.3114 24.0416 17.0769C23.8226 16.8278 23.6692 16.5201 23.5816 16.1538C23.5086 15.7875 23.4648 15.37 23.4502 14.9011V8.1978H21.5664V6.32967Z" fill="#A64D79"/>
<path d="M39.9668 11.011C39.9376 10.6154 39.8499 10.2344 39.7039 9.86813C39.5725 9.50183 39.3826 9.18681 39.1344 8.92308C38.9007 8.64469 38.6086 8.42491 38.2582 8.26374C37.9223 8.08791 37.5426 8 37.1191 8C36.681 8 36.2794 8.08059 35.9143 8.24176C35.5638 8.38828 35.2572 8.60073 34.9943 8.87912C34.7461 9.14286 34.5416 9.45788 34.381 9.82418C34.2349 10.1905 34.1546 10.5861 34.14 11.011H39.9668ZM34.14 12.6593C34.14 13.0989 34.1984 13.5238 34.3153 13.9341C34.4467 14.3443 34.6365 14.7033 34.8848 15.011C35.133 15.3187 35.447 15.5678 35.8267 15.7582C36.2064 15.9341 36.6591 16.022 37.1848 16.022C37.915 16.022 38.4991 15.8681 38.9372 15.5604C39.3899 15.2381 39.7258 14.7619 39.9449 14.1319H42.3106C42.1792 14.7473 41.9528 15.2967 41.6315 15.7802C41.3103 16.2637 40.9233 16.674 40.4706 17.011C40.0179 17.3333 39.5068 17.5751 38.9372 17.7363C38.3823 17.9121 37.7982 18 37.1848 18C36.294 18 35.5054 17.8535 34.8191 17.5604C34.1327 17.2674 33.5486 16.8571 33.0667 16.3297C32.5994 15.8022 32.2416 15.1722 31.9933 14.4396C31.7597 13.707 31.6428 12.9011 31.6428 12.022C31.6428 11.2161 31.767 10.4542 32.0152 9.73626C32.2781 9.00366 32.6432 8.3663 33.1105 7.82418C33.5924 7.2674 34.1692 6.82784 34.841 6.5055C35.5127 6.18315 36.2721 6.02198 37.1191 6.02198C38.0099 6.02198 38.8058 6.21245 39.5068 6.59341C40.2223 6.95971 40.8138 7.45055 41.2811 8.06593C41.7484 8.68132 42.0842 9.39194 42.2887 10.1978C42.5077 10.989 42.5662 11.8095 42.4639 12.6593H34.14Z" fill="#A64D79"/>
<path d="M46.5528 6.32967H48.8967V8.52747H48.9405C49.0135 8.21978 49.1522 7.91941 49.3567 7.62637C49.5757 7.33333 49.8313 7.0696 50.1233 6.83517C50.43 6.58608 50.7659 6.38828 51.131 6.24176C51.4961 6.09524 51.8684 6.02198 52.2481 6.02198C52.5402 6.02198 52.7373 6.0293 52.8396 6.04396C52.9564 6.05861 53.0732 6.07326 53.19 6.08791V8.50549C53.0148 8.47619 52.8323 8.45421 52.6424 8.43956C52.4672 8.41026 52.2919 8.39561 52.1167 8.39561C51.6932 8.39561 51.2916 8.48352 50.9119 8.65934C50.5468 8.82051 50.2256 9.0696 49.9481 9.40659C49.6706 9.72894 49.4516 10.1319 49.2909 10.6154C49.1303 11.0989 49.05 11.6557 49.05 12.2857V17.6923H46.5528V6.32967Z" fill="#A64D79"/>
<path d="M65.9292 15.1648C65.9292 15.4725 65.9657 15.6923 66.0387 15.8242C66.1263 15.956 66.287 16.022 66.5206 16.022C66.5936 16.022 66.6813 16.022 66.7835 16.022C66.8857 16.022 67.0025 16.0073 67.134 15.978V17.7143C67.0463 17.7436 66.9295 17.7729 66.7835 17.8022C66.6521 17.8462 66.5133 17.8828 66.3673 17.9121C66.2213 17.9414 66.0752 17.9634 65.9292 17.978C65.7832 17.9927 65.659 18 65.5568 18C65.0457 18 64.6222 17.8974 64.2863 17.6923C63.9504 17.4872 63.7314 17.1282 63.6292 16.6154C63.1326 17.0989 62.5193 17.4505 61.7891 17.6703C61.0736 17.8901 60.3799 18 59.7082 18C59.197 18 58.7078 17.9267 58.2405 17.7802C57.7732 17.6484 57.357 17.4505 56.9919 17.1868C56.6415 16.9084 56.3567 16.5641 56.1376 16.1538C55.9332 15.7289 55.831 15.2381 55.831 14.6813C55.831 13.978 55.9551 13.4066 56.2034 12.967C56.4662 12.5275 56.8021 12.1832 57.211 11.9341C57.6345 11.685 58.1018 11.5092 58.6129 11.4066C59.1386 11.2894 59.6644 11.2015 60.1901 11.1429C60.6428 11.0549 61.0736 10.9963 61.4825 10.967C61.8914 10.9231 62.2491 10.8571 62.5558 10.7692C62.8771 10.6813 63.1253 10.5495 63.3006 10.3736C63.4904 10.1832 63.5854 9.90476 63.5854 9.53846C63.5854 9.21612 63.505 8.95238 63.3444 8.74725C63.1984 8.54212 63.0085 8.38828 62.7749 8.28571C62.5558 8.1685 62.3076 8.09524 62.0301 8.06593C61.7526 8.02198 61.4898 8 61.2415 8C60.5406 8 59.9637 8.14652 59.511 8.43956C59.0583 8.7326 58.8028 9.18681 58.7443 9.8022H56.2472C56.291 9.0696 56.4662 8.46154 56.7729 7.97802C57.0796 7.49451 57.4665 7.10623 57.9339 6.81319C58.4158 6.52015 58.9561 6.31502 59.5548 6.1978C60.1536 6.08059 60.7669 6.02198 61.3948 6.02198C61.9498 6.02198 62.4974 6.08059 63.0377 6.1978C63.5781 6.31502 64.06 6.50549 64.4835 6.76923C64.9216 7.03297 65.272 7.37729 65.5349 7.8022C65.7978 8.21245 65.9292 8.71795 65.9292 9.31868V15.1648ZM63.432 12C63.0523 12.2491 62.585 12.4029 62.0301 12.4615C61.4752 12.5055 60.9202 12.5788 60.3653 12.6813C60.1024 12.7253 59.8469 12.7912 59.5986 12.8791C59.3504 12.9524 59.1313 13.0623 58.9415 13.2088C58.7516 13.3407 58.5983 13.5238 58.4815 13.7582C58.3793 13.978 58.3281 14.2491 58.3281 14.5714C58.3281 14.8498 58.4085 15.0842 58.5691 15.2747C58.7297 15.4652 58.9196 15.619 59.1386 15.7363C59.3723 15.8388 59.6205 15.9121 59.8834 15.956C60.1609 16 60.4091 16.022 60.6282 16.022C60.9056 16.022 61.205 15.9853 61.5263 15.9121C61.8476 15.8388 62.1469 15.7143 62.4244 15.5385C62.7165 15.3626 62.9574 15.1429 63.1473 14.8791C63.3371 14.6007 63.432 14.2637 63.432 13.8681V12Z" fill="#A64D79"/>
<path d="M78.4515 10.1319C78.3493 9.42857 78.0645 8.9011 77.5972 8.54945C77.1445 8.18315 76.5677 8 75.8667 8C75.5454 8 75.2023 8.05861 74.8372 8.17582C74.4721 8.27839 74.1362 8.48352 73.8295 8.79121C73.5229 9.08425 73.2673 9.50183 73.0629 10.044C72.8584 10.5714 72.7562 11.2674 72.7562 12.1319C72.7562 12.6007 72.8073 13.0696 72.9095 13.5385C73.0264 14.0073 73.2016 14.4249 73.4353 14.7912C73.6835 15.1575 73.9975 15.4579 74.3772 15.6923C74.7569 15.9121 75.2169 16.022 75.7572 16.022C76.4874 16.022 77.0861 15.7949 77.5534 15.3407C78.0353 14.8864 78.3347 14.2491 78.4515 13.4286H80.9487C80.715 14.9084 80.1528 16.044 79.262 16.8352C78.3858 17.6117 77.2175 18 75.7572 18C74.8664 18 74.0778 17.8535 73.3914 17.5604C72.7197 17.2527 72.1502 16.8425 71.6829 16.3297C71.2155 15.8022 70.8578 15.1795 70.6095 14.4615C70.3758 13.7436 70.259 12.967 70.259 12.1319C70.259 11.2821 70.3758 10.4835 70.6095 9.73626C70.8432 8.98901 71.1936 8.34432 71.6609 7.8022C72.1283 7.24542 72.7051 6.81319 73.3914 6.5055C74.0924 6.18315 74.9102 6.02198 75.8448 6.02198C76.502 6.02198 77.1226 6.10989 77.7067 6.28571C78.3055 6.44689 78.8312 6.69597 79.2839 7.03297C79.7512 7.36996 80.1309 7.79487 80.423 8.30769C80.715 8.82051 80.8903 9.42857 80.9487 10.1319H78.4515Z" fill="#A64D79"/>
<path d="M84.0299 6.32967H85.9138V2.92308H88.4109V6.32967H90.6672V8.1978H88.4109V14.2637C88.4109 14.5275 88.4182 14.7546 88.4329 14.9451C88.4621 15.1355 88.5132 15.2967 88.5862 15.4286C88.6738 15.5604 88.7979 15.663 88.9586 15.7363C89.1192 15.7949 89.3383 15.8242 89.6157 15.8242C89.791 15.8242 89.9662 15.8242 90.1414 15.8242C90.3167 15.8095 90.4919 15.7802 90.6672 15.7363V17.6703C90.3897 17.6996 90.1195 17.7289 89.8567 17.7582C89.5938 17.7875 89.3237 17.8022 89.0462 17.8022C88.389 17.8022 87.856 17.7436 87.4471 17.6264C87.0528 17.4945 86.7389 17.3114 86.5052 17.0769C86.2862 16.8278 86.1328 16.5201 86.0452 16.1538C85.9722 15.7875 85.9284 15.37 85.9138 14.9011V8.1978H84.0299V6.32967Z" fill="#A64D79"/>
<path d="M94.7198 2H97.2169V4.37363H94.7198V2ZM94.7198 6.32967H97.2169V17.6923H94.7198V6.32967Z" fill="#A64D79"/>
<path d="M101.011 6.32967H103.727L106.597 15.0549H106.641L109.401 6.32967H111.986L107.933 17.6923H105.129L101.011 6.32967Z" fill="#A64D79"/>
<path d="M123.454 11.011C123.425 10.6154 123.337 10.2344 123.191 9.86813C123.06 9.50183 122.87 9.18681 122.622 8.92308C122.388 8.64469 122.096 8.42491 121.745 8.26374C121.41 8.08791 121.03 8 120.606 8C120.168 8 119.767 8.08059 119.402 8.24176C119.051 8.38828 118.744 8.60073 118.482 8.87912C118.233 9.14286 118.029 9.45788 117.868 9.82418C117.722 10.1905 117.642 10.5861 117.627 11.011H123.454ZM117.627 12.6593C117.627 13.0989 117.686 13.5238 117.803 13.9341C117.934 14.3443 118.124 14.7033 118.372 15.011C118.62 15.3187 118.934 15.5678 119.314 15.7582C119.694 15.9341 120.146 16.022 120.672 16.022C121.402 16.022 121.986 15.8681 122.425 15.5604C122.877 15.2381 123.213 14.7619 123.432 14.1319H125.798C125.666 14.7473 125.44 15.2967 125.119 15.7802C124.798 16.2637 124.411 16.674 123.958 17.011C123.505 17.3333 122.994 17.5751 122.425 17.7363C121.87 17.9121 121.285 18 120.672 18C119.781 18 118.993 17.8535 118.306 17.5604C117.62 17.2674 117.036 16.8571 116.554 16.3297C116.087 15.8022 115.729 15.1722 115.481 14.4396C115.247 13.707 115.13 12.9011 115.13 12.022C115.13 11.2161 115.254 10.4542 115.503 9.73626C115.765 9.00366 116.13 8.3663 116.598 7.82418C117.08 7.2674 117.656 6.82784 118.328 6.5055C119 6.18315 119.759 6.02198 120.606 6.02198C121.497 6.02198 122.293 6.21245 122.994 6.59341C123.71 6.95971 124.301 7.45055 124.768 8.06593C125.236 8.68132 125.572 9.39194 125.776 10.1978C125.995 10.989 126.053 11.8095 125.951 12.6593H117.627Z" fill="#A64D79"/>
<path fill-rule="evenodd" clip-rule="evenodd" d="M147.93 8.00008H153.142C152.346 5.66971 150.197 4.00011 147.671 4.00011C144.466 4.00011 141.869 6.6864 141.869 10.0001C141.869 13.3138 144.466 16.0001 147.671 16.0001C149.194 16.0001 150.58 15.393 151.615 14.3999H156.356C154.782 17.7167 151.484 20 147.67 20C142.329 20 138 15.5228 138 10C138 4.47715 142.329 0 147.67 0C152.348 0 156.25 3.43556 157.146 8.00008H157.147L157.148 8.00833C157.273 8.64938 157.339 9.31267 157.34 9.9918L157.341 10.0001L157.34 10.0084C157.339 10.6874 157.273 11.3506 157.148 11.9915L157.147 12.0001H147.93C146.826 12.0001 145.93 11.1046 145.93 10.0001C145.93 8.89551 146.826 8.00008 147.93 8.00008ZM169.33 20C171.301 20 173.135 19.3901 174.663 18.3428L175.509 19.2167C176.264 19.9977 177.488 19.9977 178.244 19.2167C178.999 18.4356 178.999 17.1693 178.244 16.3883L177.398 15.5142C178.411 13.9334 179 12.0379 179 10C179 4.47715 174.671 0 169.33 0C163.99 0 159.66 4.47715 159.66 10C159.66 15.5228 163.99 20 169.33 20ZM175.132 10.0001C175.132 10.926 174.929 11.803 174.567 12.586L173.047 11.0142C172.292 10.2332 171.067 10.2332 170.312 11.0142C169.557 11.7953 169.557 13.0616 170.312 13.8427L171.832 15.4149C171.075 15.79 170.226 16.0001 169.33 16.0001C166.126 16.0001 163.528 13.3138 163.528 10.0001C163.528 6.6864 166.126 4.00011 169.33 4.00011C172.534 4.00011 175.132 6.6864 175.132 10.0001Z" fill="#A64D79"/>
</svg>
